erDiagram
	direction TB
	dim_cryptostock_value {
		INTEGER cryptostock_value_key PK ""  
		DECIMAL high  ""  
		DECIMAL low  ""  
		DECIMAL volume  ""  
		DECIMAL close  ""  
	}

	dim_asset {
		VARCHAR asset_key PK ""  
		ENUM type  ""  
	}

	dim_socioeconomical_indicator {
		VARCHAR socioeconomical_indicator_key PK ""  
		VARCHAR name  ""  
		TEXT description  ""  
	}

	dim_country {
		INTEGER country_key PK ""  
		VARCHAR country_name  ""  
		VARCHAR country_code  ""  
	}

	dim_value {
		INTEGER value_key PK ""  
		DECIMAL value  ""  
		ENUM unit  ""  
	}

	dim_time {
		DATE date_key PK ""  
		VARCHAR day_name  ""  
		INTEGER week_number  ""  
		INTEGER month_number  ""  
		VARCHAR month_name  ""  
		INTEGER year  ""  
	}

	dim_region {
		INTEGER region_key PK ""  
		INTEGER country_key FK ""  
		VARCHAR region_type  ""  
		INTEGER zip_key  ""  
		VARCHAR neighborhood_name  ""  
		VARCHAR city_name  ""  
		VARCHAR county_name  ""  
		VARCHAR metro_name  ""  
		VARCHAR state_name  ""  
		VARCHAR state_code  ""  
	}

	dim_realestate_indicator {
		VARCHAR realestate_indicator_key PK ""  
		VARCHAR indicator_name  ""  
		TEXT indicator_description  ""  
	}

	fact_value {
		INTEGER value_key FK ""  
		VARCHAR socioeconomical_indicator_key FK ""  
		VARCHAR realestate_indicator_key FK ""  
		INTEGEER region_key FK ""  
		varchar cryptostock_value_key FK ""  
		INTEGER country_key PK ""  
		DATE date_key FK ""  
		VARCHAR asset_key FK ""  
	}

	dim_time||--o{fact_value:"year_key"
	dim_value||--o{fact_value:"value_key"
	dim_realestate_indicator||--o{fact_value:"references"
	dim_country||--o{fact_value:"references"
	dim_cryptostock_value||--o{fact_value:"cryptostock_value_key"
	dim_socioeconomical_indicator||--o{fact_value:"references"
	dim_country||--o{dim_region:"references"
	dim_region||--o{fact_value           :"references"
	dim_asset||--o{fact_value:"references"